<?xml version="1.0" encoding="UTF-8"?>
<svg id="Capa_1" data-name="Capa 1" xmlns="http://www.w3.org/2000/svg" viewBox="0 0 2031.09 1080">
  <defs>
    <style>
      .cls-1 {
        fill: #fff;
        stroke-width: 0px;
      }
    </style>
  </defs>
  <g id="Blanco">
    <g>
      <path class="cls-1" d="M303.48,369.71c33.14-34.46,65.27-67.86,99.21-103.16-7.67,0-12.47.06-17.26,0-23.64-.32-41.04-16.35-42.16-38.78-1.08-21.69,17.36-43.35,39.57-43.78,42.54-.82,85.12-.82,127.66.01,21.73.43,36.97,18.68,37.09,42.35.24,47.99.06,95.98.05,143.97,0,59.31.15,118.61-.08,177.92-.09,22.32-14.56,38.82-36.19,42.57-16.16,2.8-35.85-8.77-41.46-25.97-2.73-8.38-3.32-17.75-3.35-26.68-.25-70.58-.14-141.16-.14-213.93-9.07,9.02-16.94,16.82-24.79,24.64-32.4,32.26-64.64,64.68-97.23,96.75-32.11,31.6-55.69,31.58-86.92-.4-38.58-39.51-76.71-79.47-115.04-119.22-2.75-2.85-5.55-5.65-10.3-10.48,0,6.75,0,11.01,0,15.28,0,71.08.01,142.15-.03,213.23-.01,26.9-18.76,47.44-43.34,47.62-24.2.18-44.15-20.95-44.17-47.22-.08-105.48-.08-210.97-.01-316.45.02-28.41,16.14-42.91,44.75-44.68,26-1.61,44.44,8.6,61.56,27.23,46.24,50.32,93.7,99.53,140.75,149.11,3.06,3.22,6.77,5.81,11.81,10.08Z"/>
      <path class="cls-1" d="M1844.47,749.3c-13.34,8.96-26.31,18.56-40.08,26.79-95.07,56.82-198.68,89-307.39,106.89-71.7,11.8-143.8,15.23-216.28,13.44-77.89-1.93-154.81-12.62-231.44-25.79-133.76-22.99-261.82-67.17-391.44-105.49-74.95-22.16-150.69-40.68-228.37-50-78.82-9.46-157.97-12.18-236.75-.92-39.14,5.6-77.69,15.45-116.39,23.93-14.67,3.22-24.95-.13-29.48-11.59-6.38-16.13-2.34-32.1,12.4-36.25,40.67-11.43,81.39-24.83,123.03-30.19,53.16-6.83,107.25-8.87,160.93-8.82,98.14.1,194.06,18.47,288.29,44.45,92.1,25.39,183.28,54.09,275.18,80.23,100.01,28.44,201.92,48.03,305.29,58.92,84.29,8.88,168.8,9.06,253.36,1.12,117.39-11.03,231.71-35.33,342.34-76.38,11.65-4.32,23.07-9.27,34.6-13.92.75,1.2,1.49,2.39,2.24,3.59Z"/>
      <path class="cls-1" d="M799.46,354.52c-2.45,23.49-4.83,45.75-7.09,68.03-4.61,45.37-9.12,90.76-13.74,136.13-1.1,10.81-7.87,16.03-18.14,16.42-12.2.47-24.44.4-36.65.1-11.34-.28-16.31-6.85-15.24-17.79,4.26-43.61,8.64-87.2,13.09-130.79,5-48.97,10.14-97.93,15.17-146.89,1.16-11.24,2.06-22.5,3.26-33.74,1.34-12.55,8.02-19.79,21.01-20.45.45-.02.9-.13,1.35-.14,64.44-.57,55.87-4.26,76.07,46.2,12.4,30.98,24.78,61.97,37.15,92.97,12.35,30.94,24.69,61.9,38.12,95.56,6.6-15.91,12.47-29.65,18.03-43.53,22.48-56.09,45.2-112.09,67.06-168.41,6.08-15.66,15.78-23.36,32.46-22.92,11.31.3,22.63-.17,33.94.06,16.6.33,21.49,4.89,23.34,21.4,10.88,97.38,21.79,194.77,32.56,292.16,4.01,36.26,3.85,36.28-32.73,36.19-35.25-.09-35.62-.84-39.48-35.65-6.86-61.92-14.28-123.78-21.8-188.56-7.41,18.52-13.84,34.79-20.42,51-19.17,47.21-38.29,94.43-57.65,141.56-8.2,19.95-38.23,30.1-56.97,19.02-4.31-2.55-8.16-7.43-10.15-12.12-27.5-64.64-54.64-129.42-82.55-195.82Z"/>
      <path class="cls-1" d="M1300.6,307.32c79.07,2.61,137.45,66.44,132.01,147.69-5.03,75.26-71.32,131.95-145.01,127.84-82.87-4.63-137.7-69.45-133.74-144.37,4.2-79.52,69.86-136.55,146.73-131.16ZM1358.93,444.21c0-2.26.1-4.53-.01-6.78-1.56-30.56-21.87-57.04-49.38-64.43-26.42-7.09-55.7,4.78-70.48,28.57-16.68,26.86-15.64,65.33,2.79,90.94,10.83,15.05,25.36,24.31,44.23,25.36,42.89,2.38,72.86-28,72.86-73.66Z"/>
      <path class="cls-1" d="M1860.98,484.02c16.15-49.89,31.42-97.01,46.66-144.16,7.51-23.23,10.45-25.46,34.54-25.52,9.5-.03,19.03-.48,28.5.12,14.23.9,19.76,9.66,14.6,23.11-34.06,88.8-68.19,177.58-102.44,266.31-19.24,49.85-54.84,78.01-108.89,81.9-17.17,1.24-22.68-2.87-24.25-20.44-.28-3.15-.78-6.28-1.07-9.44-2.15-23.79,1.17-27.89,24.72-32.45,23.84-4.61,39.66-19.51,47.39-41.72,2.44-7.01.59-16.94-2.45-24.22-29.33-70.33-59.33-140.38-89.12-210.53-1.41-3.32-2.74-6.68-3.84-10.11-4.06-12.7,1.47-21.55,14.92-22.28,13.54-.73,27.14-.23,40.71-.25,11.08-.02,15.38,7.54,18.88,16.45,18.26,46.58,36.67,93.09,55.07,139.62,1.47,3.72,3.25,7.31,6.07,13.6Z"/>
      <path class="cls-1" d="M1569.99,488.41c19.11-51.46,37.26-100.48,55.51-149.45,8.9-23.86,10.07-24.59,35.25-24.59,9.5,0,19.04-.49,28.51.12,12.96.84,18.91,9.48,14.09,21.42-30.38,75.25-60.76,150.51-92.29,225.28-2.75,6.52-13.24,12.41-20.93,13.64-13.68,2.19-27.97.86-41.99.5-11.42-.3-19.18-5.67-23.6-16.85-28.98-73.41-58.38-146.66-87.41-220.06-5.69-14.37.12-22.92,15.2-23.88.9-.06,1.81,0,2.72,0,58.98.15,48.58-4.9,67.78,46.23,15.65,41.68,30.87,83.51,47.16,127.64Z"/>
    </g>
  </g>
</svg>