<?xml version="1.0" encoding="UTF-8"?>
<svg id="Capa_1" data-name="Capa 1" xmlns="http://www.w3.org/2000/svg" viewBox="0 0 1080 1080">
  <defs>
    <style>
      .cls-1 {
        fill: #fff;
      }

      .cls-1, .cls-2 {
        stroke-width: 0px;
      }

      .cls-2 {
        fill: #0e69b2;
      }
    </style>
  </defs>
  <g id="Negro">
    <rect class="cls-2" x="28.03" y="28.03" width="1023.93" height="1023.93" rx="232.6" ry="232.6"/>
    <path class="cls-1" d="M549.42,517.33c42.51-44.2,83.71-87.04,127.26-132.32-9.83,0-15.99.07-22.14-.01-30.32-.41-52.64-20.97-54.07-49.74-1.38-27.82,22.26-55.6,50.76-56.15,54.56-1.06,109.18-1.06,163.74.02,27.87.55,47.42,23.96,47.58,54.32.31,61.55.07,123.1.07,184.66,0,76.07.2,152.14-.11,228.21-.11,28.62-18.68,49.8-46.41,54.61-20.73,3.6-45.99-11.25-53.18-33.31-3.5-10.75-4.26-22.77-4.3-34.23-.33-90.53-.18-181.05-.18-274.39-11.64,11.57-21.73,21.58-31.79,31.6-41.56,41.38-82.92,82.96-124.72,124.1-41.19,40.53-71.43,40.5-111.49-.51-49.49-50.67-98.39-101.93-147.55-152.92-3.53-3.66-7.12-7.25-13.21-13.44,0,8.65,0,14.13,0,19.6,0,91.17.01,182.33-.04,273.5-.02,34.51-24.07,60.85-55.58,61.07-31.04.23-56.63-26.87-56.65-60.56-.1-135.3-.1-270.6-.02-405.9.02-36.44,20.71-55.04,57.4-57.3,33.34-2.06,57,11.03,78.96,34.92,59.31,64.55,120.18,127.66,180.53,191.25,3.92,4.13,8.69,7.46,15.15,12.93Z"/>
  </g>
</svg>